<svg width="71" height="71" viewBox="0 0 71 71" fill="none" xmlns="http://www.w3.org/2000/svg">
<path d="M4.14166 51.9188L35.9437 70.2604L67.5979 52.0667L56.6521 45.7063L35.9437 58.2792L14.7917 45.8542L4.14166 51.9188Z" fill="#CADEFE" stroke="#B2B9CE"/>
<path d="M67.5979 29.4354V39.3458L35.9437 57.5396L4.14166 39.1979V29.4354L35.9437 47.1854L67.5979 29.4354Z" fill="#023E8A" stroke="#023E8A"/>
<path d="M12.2771 24.4062L4.14166 28.9917L35.9437 47.3333L67.5979 29.1396L59.1667 24.2583L35.2042 37.7187L12.2771 24.4062Z" fill="#023E8A" stroke="#023E8A"/>
<path d="M3.4021 18.9333L35.2042 37.275L66.8584 19.0812L35.2042 0.739578L3.4021 18.9333Z" stroke="#142149"/>
<path d="M35.3521 11.2417L43.7833 16.2708L46.8896 18.0458C47.0375 18.0458 47.0375 18.1938 47.0375 18.3417L46.8896 18.4896L35.5 24.9979C35.3521 24.9979 35.2042 25.1458 35.0563 25.1458C34.9083 25.1458 34.7604 25.1458 34.6125 24.9979L23.2229 18.4896C23.075 18.4896 23.075 18.3417 23.075 18.1938L23.2229 18.0458L35.3521 11.2417Z" fill="#023E8A" stroke="#023E8A"/>
<path d="M55.6167 19.3771C55.7646 19.6729 56.2083 19.9687 56.8 20.1167C57.9833 20.2646 59.1667 19.6729 58.7229 18.9333C58.575 18.6375 58.1313 18.3417 57.5396 18.1937C56.3563 18.0458 55.3208 18.6375 55.6167 19.3771Z" fill="#023E8A" stroke="#023E8A"/>
<path d="M11.0937 19.3771C11.2416 19.6729 11.6854 19.9687 12.2771 20.1167C13.4604 20.2646 14.6437 19.6729 14.2 18.9333C14.0521 18.6375 13.6083 18.3417 13.0166 18.1937C11.8333 18.0458 10.7979 18.6375 11.0937 19.3771Z" fill="#023E8A" stroke="#023E8A"/>
<path d="M33.5771 31.8021C33.725 32.0979 34.1687 32.3937 34.7604 32.5417C35.9437 32.6896 37.1271 32.0979 36.6833 31.3583C36.5354 31.0625 36.0916 30.7667 35.5 30.6187C34.3166 30.4708 33.2812 31.0625 33.5771 31.8021Z" fill="#023E8A" stroke="#023E8A"/>
<path d="M33.5771 6.2125C33.725 6.50833 34.1687 6.80417 34.7604 6.95208C35.9437 7.1 37.1271 6.50833 36.6833 5.76875C36.5354 5.47292 36.0916 5.17708 35.5 5.02917C34.3166 4.88125 33.2812 5.47291 33.5771 6.2125Z" fill="#023E8A" stroke="#023E8A"/>
</svg>
