<svg width="72" height="72" viewBox="0 0 72 72" fill="none" xmlns="http://www.w3.org/2000/svg">
<g clip-path="url(#clip0_227_62)">
<path d="M15 43.2L34.05 54L36 54.45L37.5 53.85L56.7 43.2L71.25 51.15L36 69.9L0.75 50.85L15 43.2Z" fill="#CADEFE" stroke="#B2B9CE"/>
<path d="M20.4 24.3C23.4 21.3 26.4 20.55 26.4 20.55C27 20.55 28.05 19.65 27.9 19.05C26.4 17.55 26.55 16.65 25.95 16.5C24.75 16.35 22.8 15.9 21.6 15.9C11.55 16.05 3.44999 24 3.14999 33.9C3.14999 34.05 3.29999 35.4 4.04999 35.85L13.8 41.7C13.8 41.7 12.9 38.55 14.4 34.05C14.4 34.05 17.4 27.3 20.4 24.3Z" fill="#023E8A" stroke="#142149"/>
<path d="M27.6 4.95001C27.75 5.10001 27.9 5.25001 28.05 5.40001C26.25 7.05001 27 7.05001 25.5 10.05C24 14.55 26.85 17.25 26.55 17.55C23.25 19.95 18.6 19.8 15.6 16.8C12.3 13.5 12.3 8.25001 15.6 4.95001C18.9 1.65001 24.3 1.65001 27.6 4.95001Z" fill="#023E8A" stroke="#142149"/>
<path d="M57.9 41.55L67.8 35.85C68.55 35.4 69 34.8 69 34.35C69 24.15 60.75 15.75 50.4 15.75C48.45 15.75 46.65 16.05 45 16.5C44.25 17.25 44.25 19.2 42.75 19.95C42.75 20.1 45.75 19.2 51.75 25.2C53.85 27.3 57.9 32.25 57.75 35.25L57.9 41.55Z" fill="#023E8A" stroke="#142149"/>
<path d="M56.55 4.49999C59.85 7.79999 59.85 13.05 56.55 16.35C53.4 19.5 48.3 19.65 45 16.65C44.85 16.5 48.9 11.25 43.8 5.69999C44.1 5.24999 44.4 4.94999 44.7 4.49999C48 1.19999 53.25 1.19999 56.55 4.49999Z" fill="#023E8A" stroke="#142149"/>
<path d="M28.5 19.95C19.95 22.8 13.8 30.75 13.5 40.2C13.5 40.35 13.65 42 14.55 42.6L32.55 52.5C34.05 53.4 38.4 53.25 40.2 52.2L56.4 42.9C57.3 42.3 57.75 41.7 57.9 40.95C57.9 31.2 51.6 22.95 42.9 19.95" stroke="#142149"/>
<path d="M35.7 22.5C41.2505 22.5 45.75 18.0005 45.75 12.45C45.75 6.89953 41.2505 2.39999 35.7 2.39999C30.1495 2.39999 25.65 6.89953 25.65 12.45C25.65 18.0005 30.1495 22.5 35.7 22.5Z" stroke="#142149"/>
</g>
<defs>
<clipPath id="clip0_227_62">
<rect width="72" height="72" fill="white"/>
</clipPath>
</defs>
</svg>
