<svg width="66" height="66" viewBox="0 0 66 66" fill="none" xmlns="http://www.w3.org/2000/svg">
<path d="M32.725 10.5875L15.4 26.4C15.4 26.4 15.4 50.875 15.5375 55C11.4125 53.625 7.5625 51.7 7.5625 48.675C7.5625 42.35 7.5625 21.3125 7.5625 21.3125L25.85 5.225L44.6875 0.6875V7.0125L32.725 10.5875Z" fill="#CADEFE" stroke="#B2B9CE"/>
<path d="M39.875 13.475C38.5 14.85 21.3125 29.425 21.3125 29.425C21.3125 29.425 21.3125 34.925 21.3125 41.25C21.3125 48.5375 20.2125 56.5125 21.5875 58.575C21.725 58.85 21.725 58.85 21.45 58.85C17.7375 57.475 14.3 55.6875 14.3 52.9375C14.3 46.6125 14.3 25.575 14.3 25.575L33 9.4875L51.425 4.95V10.3125L39.875 13.475Z" fill="#023E8A" stroke="#023E8A"/>
<path d="M58.4375 36.85C58.4375 43.45 40.0125 65.3125 40.0125 65.3125C40.0125 65.3125 21.3125 63.3875 21.3125 56.925C21.3125 50.6 21.3125 29.5625 21.3125 29.5625L40.0125 13.475L58.4375 8.9375V36.3V36.85Z" stroke="#142149"/>
<path d="M49.9125 24.475L30.9375 35.6125" stroke="#023E8A" stroke-width="1.5"/>
<path d="M49.225 31.7625L30.9375 42.4875" stroke="#023E8A" stroke-width="1.5"/>
<path d="M49.225 38.225L30.9375 48.95" stroke="#023E8A" stroke-width="1.5"/>
</svg>
