<svg width="21" height="21" viewBox="0 0 21 21" fill="none" xmlns="http://www.w3.org/2000/svg">
<path d="M18.3286 7.2669C18.3197 6.60419 18.1957 5.94808 17.9619 5.3279C17.7592 4.80478 17.4497 4.3297 17.053 3.933C16.6563 3.5363 16.1812 3.22672 15.6581 3.02402C15.0459 2.79421 14.3991 2.66995 13.7453 2.65652C12.9036 2.6189 12.6367 2.6084 10.4999 2.6084C8.36319 2.6084 8.08931 2.6084 7.25369 2.65652C6.6002 2.67005 5.95374 2.79431 5.34181 3.02402C4.81862 3.22658 4.34346 3.53611 3.94674 3.93283C3.55003 4.32954 3.24049 4.8047 3.03794 5.3279C2.80767 5.93964 2.68367 6.58625 2.67131 7.23977C2.63369 8.0824 2.62231 8.34927 2.62231 10.486C2.62231 12.6228 2.62231 12.8958 2.67131 13.7323C2.68444 14.3868 2.80781 15.0325 3.03794 15.6459C3.24083 16.1689 3.5506 16.6439 3.94745 17.0405C4.34429 17.437 4.8195 17.7464 5.34269 17.9489C5.95294 18.1879 6.59952 18.3211 7.25457 18.3426C8.09719 18.3803 8.36407 18.3916 10.5008 18.3916C12.6376 18.3916 12.9114 18.3916 13.7471 18.3426C14.4008 18.3298 15.0476 18.2058 15.6598 17.976C16.1828 17.7731 16.6578 17.4634 17.0544 17.0668C17.4511 16.6701 17.7608 16.1951 17.9637 15.6721C18.1938 15.0596 18.3172 14.4139 18.3303 13.7585C18.3679 12.9168 18.3793 12.6499 18.3793 10.5123C18.3776 8.37552 18.3776 8.10427 18.3286 7.2669V7.2669ZM10.4947 14.5268C8.25994 14.5268 6.44956 12.7164 6.44956 10.4816C6.44956 8.2469 8.25994 6.43652 10.4947 6.43652C11.5675 6.43652 12.5964 6.86271 13.355 7.62131C14.1136 8.37992 14.5398 9.40881 14.5398 10.4816C14.5398 11.5545 14.1136 12.5834 13.355 13.342C12.5964 14.1006 11.5675 14.5268 10.4947 14.5268V14.5268ZM14.7008 7.23015C14.5769 7.23026 14.4542 7.20594 14.3397 7.15858C14.2252 7.11122 14.1212 7.04175 14.0336 6.95413C13.946 6.86652 13.8765 6.76249 13.8291 6.648C13.7818 6.53351 13.7574 6.4108 13.7576 6.2869C13.7576 6.16309 13.782 6.04049 13.8293 5.9261C13.8767 5.81171 13.9462 5.70778 14.0337 5.62023C14.1213 5.53268 14.2252 5.46323 14.3396 5.41585C14.454 5.36847 14.5766 5.34409 14.7004 5.34409C14.8242 5.34409 14.9468 5.36847 15.0612 5.41585C15.1756 5.46323 15.2795 5.53268 15.367 5.62023C15.4546 5.70778 15.524 5.81171 15.5714 5.9261C15.6188 6.04049 15.6432 6.16309 15.6432 6.2869C15.6432 6.8084 15.2214 7.23015 14.7008 7.23015Z" fill="white"/>
<path d="M10.4947 13.1093C11.9459 13.1093 13.1223 11.9328 13.1223 10.4816C13.1223 9.03043 11.9459 7.854 10.4947 7.854C9.04349 7.854 7.86707 9.03043 7.86707 10.4816C7.86707 11.9328 9.04349 13.1093 10.4947 13.1093Z" fill="white"/>
</svg>
