<svg width="44" height="44" viewBox="0 0 44 44" fill="none" xmlns="http://www.w3.org/2000/svg">
<path d="M36.1167 34.925L29.5167 28.325C31.4417 26.125 32.6333 23.1917 32.6333 20.075C32.6333 13.3833 26.7667 7.51666 20.075 7.51666C13.1083 7.51666 7.51666 13.1083 7.51666 20.075C7.51666 27.0417 13.1083 32.6333 20.075 32.6333C23.2833 32.6333 26.125 31.4417 28.4167 29.425L35.0167 36.025C35.2 36.2083 35.475 36.2083 35.6583 36.025L36.1167 35.5667C36.3 35.3833 36.3 35.1083 36.1167 34.925ZM20.075 30.9833C14.025 30.9833 9.075 26.0333 9.075 20.075C9.075 14.025 14.025 9.075 20.075 9.075C25.9417 9.075 31.075 14.2083 31.075 20.075C30.9833 26.125 26.125 30.9833 20.075 30.9833Z" fill="#6F6F6F"/>
</svg>
