<svg width="20" height="20" viewBox="0 0 20 20" fill="none" xmlns="http://www.w3.org/2000/svg">
<path fill-rule="evenodd" clip-rule="evenodd" d="M20 4.1027C19.2476 4.41913 18.4538 4.62608 17.6427 4.71725C18.4909 4.23361 19.1409 3.46997 19.4473 2.55816C18.6365 3.01451 17.7563 3.33453 16.8418 3.50543C16.4491 3.11201 15.9822 2.80046 15.4681 2.58885C14.9541 2.37724 14.4032 2.26978 13.8473 2.2727C11.5809 2.2727 9.74364 4.01997 9.74364 6.17452C9.74364 6.47997 9.78 6.77816 9.85 7.06361C6.43909 6.89997 3.41636 5.34725 1.39273 2.98725C1.02918 3.57705 0.836568 4.25622 0.836364 4.94907C0.836364 6.3027 1.56 7.49634 2.66091 8.19543C2.0128 8.17729 1.37745 8.01091 0.803636 7.70907V7.75725C0.803636 9.64816 2.21727 11.2254 4.09455 11.5836C3.48915 11.7401 2.85697 11.763 2.24182 11.6509C2.76364 13.2009 4.27909 14.3282 6.07454 14.36C4.60049 15.4514 2.81319 16.0371 0.979091 16.03C0.647273 16.03 0.320909 16.0118 0 15.9754C1.89526 17.1269 4.07148 17.733 6.28909 17.7272C13.8373 17.7272 17.9645 11.7818 17.9645 6.62725C17.9645 6.45725 17.9609 6.28907 17.9527 6.12179C18.7499 5.57596 19.4432 4.8922 20 4.1027V4.1027Z" fill="white"/>
</svg>
