<svg width="39" height="39" viewBox="0 0 39 39" fill="none" xmlns="http://www.w3.org/2000/svg">
<path d="M1.26697 37.614L3.83897 28.206C2.25769 25.4429 1.42813 22.3136 1.43297 19.13C1.41397 9.09399 9.51497 0.942993 19.472 0.942993C24.303 0.942993 28.84 2.82799 32.257 6.26599C35.674 9.70399 37.547 14.269 37.547 19.13C37.547 29.148 29.447 37.3 19.49 37.3C16.4709 37.3039 13.5003 36.5407 10.857 35.082L1.26697 37.614V37.614ZM11.28 31.81L11.831 32.143C14.1424 33.52 16.7825 34.2479 19.473 34.25C27.739 34.25 34.481 27.466 34.481 19.149C34.481 15.119 32.92 11.312 30.091 8.46499C27.26 5.61999 23.476 4.02999 19.471 4.02999C11.186 4.02999 4.44397 10.814 4.44397 19.131C4.44397 21.978 5.23397 24.769 6.74097 27.171L7.08997 27.745L5.56497 33.327L11.278 31.811L11.28 31.81Z" fill="white"/>
<path d="M1.89197 36.985L4.37197 27.892C2.84274 25.2251 2.0384 22.2042 2.03897 19.13C2.03897 9.46399 9.86497 1.59 19.472 1.59C24.138 1.59 28.51 3.42 31.816 6.728C33.4407 8.35803 34.728 10.2924 35.6043 12.4205C36.4806 14.5486 36.9287 16.8286 36.923 19.13C36.923 28.797 29.098 36.671 19.49 36.671C16.57 36.671 13.704 35.931 11.15 34.527L1.89197 36.985V36.985Z" fill="url(#paint0_linear_127_14)"/>
<path d="M1.26697 37.614L3.83897 28.206C2.25769 25.4429 1.42813 22.3136 1.43297 19.13C1.41397 9.09399 9.51497 0.942993 19.472 0.942993C24.303 0.942993 28.84 2.82799 32.257 6.26599C35.674 9.70399 37.547 14.269 37.547 19.13C37.547 29.148 29.447 37.3 19.49 37.3C16.4709 37.3039 13.5003 36.5407 10.857 35.082L1.26697 37.614V37.614ZM11.28 31.81L11.831 32.143C14.1424 33.52 16.7825 34.2479 19.473 34.25C27.739 34.25 34.481 27.466 34.481 19.149C34.481 15.119 32.92 11.312 30.091 8.46499C27.26 5.61999 23.476 4.02999 19.471 4.02999C11.186 4.02999 4.44397 10.814 4.44397 19.131C4.44397 21.978 5.23397 24.769 6.74097 27.171L7.08997 27.745L5.56497 33.327L11.278 31.811L11.28 31.81Z" fill="url(#paint1_linear_127_14)"/>
<path fill-rule="evenodd" clip-rule="evenodd" d="M14.971 11.515C14.641 10.757 14.273 10.739 13.961 10.739C13.685 10.72 13.391 10.72 13.079 10.72C12.785 10.72 12.289 10.831 11.867 11.293C11.444 11.755 10.287 12.846 10.287 15.083C10.287 17.319 11.904 19.482 12.124 19.777C12.344 20.073 15.247 24.805 19.839 26.635C23.66 28.15 24.432 27.855 25.259 27.762C26.085 27.67 27.922 26.672 28.308 25.599C28.675 24.546 28.675 23.622 28.565 23.437C28.455 23.252 28.142 23.141 27.701 22.901C27.242 22.679 25.038 21.571 24.615 21.422C24.193 21.274 23.899 21.2 23.605 21.644C23.311 22.106 22.448 23.123 22.172 23.418C21.915 23.714 21.64 23.751 21.199 23.529C20.739 23.308 19.289 22.827 17.561 21.274C16.221 20.073 15.321 18.576 15.045 18.132C14.788 17.67 15.008 17.43 15.247 17.208C15.449 17.005 15.707 16.672 15.927 16.413C16.147 16.154 16.22 15.951 16.386 15.655C16.533 15.36 16.459 15.082 16.349 14.861C16.239 14.657 15.375 12.421 14.971 11.515V11.515Z" fill="white"/>
<defs>
<linearGradient id="paint0_linear_127_14" x1="19.404" y1="36.983" x2="19.404" y2="1.583" gradientUnits="userSpaceOnUse">
<stop stop-color="#20B038"/>
<stop offset="1" stop-color="#60D66A"/>
</linearGradient>
<linearGradient id="paint1_linear_127_14" x1="19.404" y1="37.618" x2="19.404" y2="0.947994" gradientUnits="userSpaceOnUse">
<stop stop-color="#F9F9F9"/>
<stop offset="1" stop-color="white"/>
</linearGradient>
</defs>
</svg>
